<?xml version="1.0" encoding="utf-8"?>
<svg version="1.1" id="Layer_1"
xmlns="http://www.w3.org/2000/svg"
xmlns:xlink="http://www.w3.org/1999/xlink"
width="133px" height="18px"
xml:space="preserve">
<g id="PathID_1" transform="matrix(-0.133445, 1.16662e-008, -1.16662e-008, 0.133445, 25.25, 8.8)" opacity="1">
<path style="fill:#001F56;fill-opacity:1" d="M185.85 -9.55L185.85 9.6Q185.85 30.3 171.2 44.95Q156.55 59.6 135.85 59.6L-135.85 59.6Q-156.55 59.6 -171.2 44.95Q-185.85 30.3 -185.85 9.6L-185.85 -9.55Q-185.85 -30.25 -171.2 -44.9Q-156.55 -59.55 -135.85 -59.55L135.85 -59.55Q156.55 -59.55 171.2 -44.9Q185.85 -30.25 185.85 -9.55" />
</g>
<g id="PathID_2" transform="matrix(-0.133445, 1.16662e-008, -1.16662e-008, 0.133445, 25.25, 8.8)" opacity="1">
</g>
<g id="PathID_3" transform="matrix(0.157419, 0, -1.3762e-008, -0.157419, 68.85, 8.75)" opacity="1">
<path style="fill:#001F56;fill-opacity:1" d="M36 -36.1Q51 -21.1 51 0Q51 21.1 36 36Q21.1 51 0 51Q-21.1 51 -36.1 36Q-51 21.1 -51 0Q-51 -21.1 -36.1 -36.1Q-21.1 -51 0 -51Q21.1 -51 36 -36.1" />
</g>
<g id="PathID_4" transform="matrix(0.157419, 0, -1.3762e-008, -0.157419, 68.85, 8.75)" opacity="1">
</g>
<g id="PathID_5" transform="matrix(0.157419, 0, -1.3762e-008, -0.157419, 96.85, 8.6)" opacity="1">
<path style="fill:#001F56;fill-opacity:1" d="M36 -36.1Q51 -21.1 51 0Q51 21.1 36 36Q21.1 51 0 51Q-21.1 51 -36.1 36Q-51 21.1 -51 0Q-51 -21.1 -36.1 -36.1Q-21.1 -51 0 -51Q21.1 -51 36 -36.1" />
</g>
<g id="PathID_6" transform="matrix(0.157419, 0, -1.3762e-008, -0.157419, 96.85, 8.6)" opacity="1">
</g>
<g id="PathID_7" transform="matrix(0.157419, 0, -1.3762e-008, -0.157419, 124.7, 8.8)" opacity="1">
<path style="fill:#001F56;fill-opacity:1" d="M36 -36.1Q51 -21.1 51 0Q51 21.1 36 36Q21.1 51 0 51Q-21.1 51 -36.1 36Q-51 21.1 -51 0Q-51 -21.1 -36.1 -36.1Q-21.1 -51 0 -51Q21.1 -51 36 -36.1" />
</g>
<g id="PathID_8" transform="matrix(0.157419, 0, -1.3762e-008, -0.157419, 124.7, 8.8)" opacity="1">
</g>
</svg>
