<?xml version="1.0" encoding="utf-8"?>
<svg version="1.1" id="Layer_1"
xmlns="http://www.w3.org/2000/svg"
xmlns:xlink="http://www.w3.org/1999/xlink"
width="200px" height="180px"
xml:space="preserve">
<g id="PathID_1" transform="matrix(3.45367, 0, 0, 3.45367, -12.05, 124.5)" opacity="1">
<path style="fill:#FFFFFF;fill-opacity:1" d="M3.75 0L3.75 -35.75L19 -35.75Q29.2 -35.75 29.2 -27.15Q29.2 -20.2 19.2 -16.85L31.5 0L25.4 0L14 -16.05L14 -19.1Q24.25 -20.7 24.25 -26.95Q24.25 -31.9 18.55 -31.9L8.35 -31.9L8.35 0L3.75 0" />
</g>
<g id="PathID_2" transform="matrix(3.45367, 0, 0, 3.45367, -12.05, 124.5)" opacity="1">
</g>
<g id="PathID_3" transform="matrix(3.45367, 0, 0, 3.45367, 74.15, 179.3)" opacity="1">
<path style="fill:#FFFFFF;fill-opacity:1" d="M0.6 0L15.8 -35.75L20.9 -35.75L36.15 0L31.3 0L26.55 -11.25L14.6 -11.25L15.85 -15L24.8 -15L18.2 -30.95L5.4 0L0.6 0" />
</g>
<g id="PathID_4" transform="matrix(3.45367, 0, 0, 3.45367, 74.15, 179.3)" opacity="1">
</g>
</svg>
