<?xml version="1.0" encoding="utf-8"?>
<svg version="1.1" id="Layer_1"
xmlns="http://www.w3.org/2000/svg"
xmlns:xlink="http://www.w3.org/1999/xlink"
width="250px" height="163px"
xml:space="preserve">
<g id="PathID_1" transform="matrix(2.39974, 0, 0, 1.10218, 125, 104.7)" opacity="1">
<path style="fill:#132634;fill-opacity:1" d="M51.5 -51.5L51.5 51.5L-51.5 51.5L-51.5 -51.5L51.5 -51.5" />
</g>
<g id="PathID_2" transform="matrix(2.39974, 0, 0, 1.10218, 125, 104.7)" opacity="1">
</g>
<g id="PathID_3" transform="matrix(1.2322, -0.428128, 0.0168556, 0.0485122, 65.8, 27.3)" opacity="1">
<path style="fill:#132634;fill-opacity:1" d="M51.5 -51.5L51.5 51.5L-51.5 51.5L-51.5 -51.5L51.5 -51.5" />
</g>
<g id="PathID_4" transform="matrix(1.2322, -0.428128, 0.0168556, 0.0485122, 65.8, 27.3)" opacity="1">
</g>
<g id="PathID_5" transform="matrix(-1.2322, -0.428129, -0.0168556, 0.0485122, 183.75, 28)" opacity="1">
<path style="fill:#132634;fill-opacity:1" d="M51.5 -51.5L51.5 51.5L-51.5 51.5L-51.5 -51.5L51.5 -51.5" />
</g>
<g id="PathID_6" transform="matrix(-1.2322, -0.428129, -0.0168556, 0.0485122, 183.75, 28)" opacity="1">
</g>
<g id="PathID_7" transform="matrix(-0.112235, -0, 0, -0.112235, 124.65, 6.75)" opacity="1">
<path style="fill:#132634;fill-opacity:1" d="M36 -36.1Q51 -21.1 51 0Q51 21.1 36 36Q21.1 51 0 51Q-21.1 51 -36.1 36Q-51 21.1 -51 0Q-51 -21.1 -36.1 -36.1Q-21.1 -51 0 -51Q21.1 -51 36 -36.1" />
</g>
<g id="PathID_8" transform="matrix(-0.112235, -0, 0, -0.112235, 124.65, 6.75)" opacity="1">
</g>
</svg>
